HIERARCHY
ROOT Hips
{
	OFFSET 0.000000 100.481300 0.000000
	CHANNELS 6 Xposition Yposition Zposition Xrotation Yrotation Zrotation
	JOINT Spine
	{
		OFFSET -0.279200 12.230698 -2.892100
		CHANNELS 3 Xrotation Yrotation Zrotation
		JOINT Spine1
		{
			OFFSET -0.325700 14.269203 -3.374200
			CHANNELS 3 Xrotation Yrotation Zrotation
			JOINT Spine2
			{
				OFFSET -0.372300 16.307602 -0.352600
				CHANNELS 3 Xrotation Yrotation Zrotation
				JOINT Neck
				{
					OFFSET -0.418800 17.814194 8.416900
					CHANNELS 3 Xrotation Yrotation Zrotation
					JOINT Head
					{
						OFFSET 0.000000 7.031097 3.806800
						CHANNELS 3 Xrotation Yrotation Zrotation
						JOINT HeadTop_End
						{
							OFFSET 0.000000 24.646606 12.978600
							CHANNELS 3 Xrotation Yrotation Zrotation
							End Site
							{
								OFFSET 0.000000 27.854965 0.000000
							}
						}
					}
				}
				JOINT LeftShoulder
				{
					OFFSET 16.952999 14.495407 -7.737500
					CHANNELS 3 Xrotation Yrotation Zrotation
					JOINT LeftArm
					{
						OFFSET 9.308998 -2.777710 0.208600
						CHANNELS 3 Xrotation Yrotation Zrotation
						JOINT LeftForeArm
						{
							OFFSET 29.972298 0.000000 0.000000
							CHANNELS 3 Xrotation Yrotation Zrotation
							JOINT LeftHand
							{
								OFFSET 26.026505 0.000000 0.000000
								CHANNELS 3 Xrotation Yrotation Zrotation
								JOINT LeftHandThumb1
								{
									OFFSET 12.240501 -7.147949 9.207150
									CHANNELS 3 Xrotation Yrotation Zrotation
									JOINT LeftHandThumb2
									{
										OFFSET 4.138618 -2.389435 2.389433
										CHANNELS 3 Xrotation Yrotation Zrotation
										JOINT LeftHandThumb3
										{
											OFFSET 2.726913 -1.574387 1.574386
											CHANNELS 3 Xrotation Yrotation Zrotation
											JOINT LeftHandThumb4
											{
												OFFSET 3.941010 -2.275345 2.275342
												CHANNELS 3 Xrotation Yrotation Zrotation
												End Site
												{
													OFFSET -0.005798 5.087799 0.009903
												}
											}
										}
									}
								}
								JOINT LeftHandIndex1
								{
									OFFSET 24.424698 -1.985611 5.953459
									CHANNELS 3 Xrotation Yrotation Zrotation
									JOINT LeftHandIndex2
									{
										OFFSET 6.426697 0.000000 0.000000
										CHANNELS 3 Xrotation Yrotation Zrotation
										JOINT LeftHandIndex3
										{
											OFFSET 5.337898 0.000000 0.000000
											CHANNELS 3 Xrotation Yrotation Zrotation
											JOINT LeftHandIndex4
											{
												OFFSET 4.409401 0.000000 0.000000
												CHANNELS 3 Xrotation Yrotation Zrotation
												End Site
												{
													OFFSET 0.000000 4.409363 0.014373
												}
											}
										}
									}
								}
								JOINT LeftHandMiddle1
								{
									OFFSET 23.810104 0.000000 0.000000
									CHANNELS 3 Xrotation Yrotation Zrotation
									JOINT LeftHandMiddle2
									{
										OFFSET 7.176498 0.000000 0.000000
										CHANNELS 3 Xrotation Yrotation Zrotation
										JOINT LeftHandMiddle3
										{
											OFFSET 6.774902 0.000000 0.000000
											CHANNELS 3 Xrotation Yrotation Zrotation
											JOINT LeftHandMiddle4
											{
												OFFSET 5.403328 0.000000 0.000000
												CHANNELS 3 Xrotation Yrotation Zrotation
												End Site
												{
													OFFSET -0.027702 5.403244 0.017414
												}
											}
										}
									}
								}
								JOINT LeftHandRing1
								{
									OFFSET 22.908401 -0.839279 -6.020567
									CHANNELS 3 Xrotation Yrotation Zrotation
									JOINT LeftHandRing2
									{
										OFFSET 6.337502 0.000000 0.000000
										CHANNELS 3 Xrotation Yrotation Zrotation
										JOINT LeftHandRing3
										{
											OFFSET 5.779297 0.000000 0.000000
											CHANNELS 3 Xrotation Yrotation Zrotation
											JOINT LeftHandRing4
											{
												OFFSET 4.965698 0.000000 0.000000
												CHANNELS 3 Xrotation Yrotation Zrotation
												End Site
												{
													OFFSET 0.000000 4.965668 0.016186
												}
											}
										}
									}
								}
								JOINT LeftHandPinky1
								{
									OFFSET 20.037003 -1.530319 -10.950146
									CHANNELS 3 Xrotation Yrotation Zrotation
									JOINT LeftHandPinky2
									{
										OFFSET 5.254700 0.000000 0.000000
										CHANNELS 3 Xrotation Yrotation Zrotation
										JOINT LeftHandPinky3
										{
											OFFSET 4.810204 0.000000 0.000000
											CHANNELS 3 Xrotation Yrotation Zrotation
											JOINT LeftHandPinky4
											{
												OFFSET 3.647202 0.000000 0.000000
												CHANNELS 3 Xrotation Yrotation Zrotation
												End Site
												{
													OFFSET 0.000000 3.647186 0.011889
												}
											}
										}
									}
								}
							}
						}
					}
				}
				JOINT RightShoulder
				{
					OFFSET -15.141001 14.495407 -7.737500
					CHANNELS 3 Xrotation Yrotation Zrotation
					JOINT RightArm
					{
						OFFSET -9.308998 -2.777710 0.208500
						CHANNELS 3 Xrotation Yrotation Zrotation
						JOINT RightForeArm
						{
							OFFSET -29.972300 0.000000 0.000000
							CHANNELS 3 Xrotation Yrotation Zrotation
							JOINT RightHand
							{
								OFFSET -26.026505 0.000000 0.000000
								CHANNELS 3 Xrotation Yrotation Zrotation
								JOINT RightHandThumb1
								{
									OFFSET -12.240601 -7.148026 9.207092
									CHANNELS 3 Xrotation Yrotation Zrotation
									JOINT RightHandThumb2
									{
										OFFSET -4.138618 -2.389435 2.389433
										CHANNELS 3 Xrotation Yrotation Zrotation
										JOINT RightHandThumb3
										{
											OFFSET -2.726974 -1.574417 1.574421
											CHANNELS 3 Xrotation Yrotation Zrotation
											JOINT RightHandThumb4
											{
												OFFSET -3.941010 -2.275345 2.275343
												CHANNELS 3 Xrotation Yrotation Zrotation
												End Site
												{
													OFFSET 0.005814 5.087799 0.009927
												}
											}
										}
									}
								}
								JOINT RightHandIndex1
								{
									OFFSET -24.424698 -1.985657 5.953444
									CHANNELS 3 Xrotation Yrotation Zrotation
									JOINT RightHandIndex2
									{
										OFFSET -6.426697 0.000000 0.000000
										CHANNELS 3 Xrotation Yrotation Zrotation
										JOINT RightHandIndex3
										{
											OFFSET -5.337898 0.000000 0.000000
											CHANNELS 3 Xrotation Yrotation Zrotation
											JOINT RightHandIndex4
											{
												OFFSET -4.409401 0.000000 0.000000
												CHANNELS 3 Xrotation Yrotation Zrotation
												End Site
												{
													OFFSET 0.000000 4.409363 0.014408
												}
											}
										}
									}
								}
								JOINT RightHandMiddle1
								{
									OFFSET -23.810097 0.000000 0.000000
									CHANNELS 3 Xrotation Yrotation Zrotation
									JOINT RightHandMiddle2
									{
										OFFSET -7.176498 0.000000 0.000000
										CHANNELS 3 Xrotation Yrotation Zrotation
										JOINT RightHandMiddle3
										{
											OFFSET -6.774902 0.000000 0.000000
											CHANNELS 3 Xrotation Yrotation Zrotation
											JOINT RightHandMiddle4
											{
												OFFSET -5.403328 0.000000 0.000000
												CHANNELS 3 Xrotation Yrotation Zrotation
												End Site
												{
													OFFSET 0.027702 5.403244 0.017457
												}
											}
										}
									}
								}
								JOINT RightHandRing1
								{
									OFFSET -22.908302 -0.839325 -6.020576
									CHANNELS 3 Xrotation Yrotation Zrotation
									JOINT RightHandRing2
									{
										OFFSET -6.337502 0.000000 0.000000
										CHANNELS 3 Xrotation Yrotation Zrotation
										JOINT RightHandRing3
										{
											OFFSET -5.779297 0.000000 0.000000
											CHANNELS 3 Xrotation Yrotation Zrotation
											JOINT RightHandRing4
											{
												OFFSET -4.965698 0.000000 0.000000
												CHANNELS 3 Xrotation Yrotation Zrotation
												End Site
												{
													OFFSET 0.000000 4.965668 0.016226
												}
											}
										}
									}
								}
								JOINT RightHandPinky1
								{
									OFFSET -20.037003 -1.530334 -10.950259
									CHANNELS 3 Xrotation Yrotation Zrotation
									JOINT RightHandPinky2
									{
										OFFSET -5.254700 0.000000 0.000000
										CHANNELS 3 Xrotation Yrotation Zrotation
										JOINT RightHandPinky3
										{
											OFFSET -4.810204 0.000000 0.000000
											CHANNELS 3 Xrotation Yrotation Zrotation
											JOINT RightHandPinky4
											{
												OFFSET -3.647202 0.000000 0.000000
												CHANNELS 3 Xrotation Yrotation Zrotation
												End Site
												{
													OFFSET 0.000000 3.647186 0.011917
												}
											}
										}
									}
								}
							}
						}
					}
				}
			}
		}
	}
	JOINT LeftUpLeg
	{
		OFFSET 15.427100 -6.655098 0.678600
		CHANNELS 3 Xrotation Yrotation Zrotation
		JOINT LeftLeg
		{
			OFFSET 4.081073 -39.591068 13.024000
			CHANNELS 3 Xrotation Yrotation Zrotation
			JOINT LeftFoot
			{
				OFFSET -4.081074 -37.707932 -15.979700
				CHANNELS 3 Xrotation Yrotation Zrotation
				JOINT LeftToeBase
				{
					OFFSET 5.346399 -15.068900 20.645000
					CHANNELS 3 Xrotation Yrotation Zrotation
					JOINT LeftToe_End
					{
						OFFSET 2.754700 0.931300 11.300900
						CHANNELS 3 Xrotation Yrotation Zrotation
						End Site
						{
							OFFSET 0.000000 11.669021 0.000000
						}
					}
				}
			}
		}
	}
	JOINT RightUpLeg
	{
		OFFSET -15.569500 -6.655098 0.678600
		CHANNELS 3 Xrotation Yrotation Zrotation
		JOINT RightLeg
		{
			OFFSET -4.081825 -39.591045 13.023800
			CHANNELS 3 Xrotation Yrotation Zrotation
			JOINT RightFoot
			{
				OFFSET 4.081824 -37.707954 -15.979600
				CHANNELS 3 Xrotation Yrotation Zrotation
				JOINT RightToeBase
				{
					OFFSET -5.346400 -15.068900 20.645000
					CHANNELS 3 Xrotation Yrotation Zrotation
					JOINT RightToe_End
					{
						OFFSET -2.754700 0.931300 11.300900
						CHANNELS 3 Xrotation Yrotation Zrotation
						End Site
						{
							OFFSET 0.000000 11.669021 0.000000
						}
					}
				}
			}
		}
	}
}
MOTION
Frames: 4
Frame Time: 0.033333
1.323461 88.898720 20.866402 -16.676641 -22.301464 -7.039812 0.572298 4.787061 0.221374 0.102405 2.039908 1.877681 0.073800 2.046514 1.966608 3.905413 1.947007 2.609789 -11.164701 14.910317 -4.094006 -0.000001 -0.000000 0.000000 1.867127 -14.926074 -8.614211 -37.408062 6.967671 -43.877183 -0.000017 -143.019230 -0.000010 -69.856654 -3.703454 -19.277022 -8.056610 -1.393751 4.829850 13.848313 8.895009 14.317977 -7.150677 39.391887 16.181230 -0.000002 0.000001 0.000001 1.384505 2.080170 -40.646596 0.267894 1.752970 -17.376527 0.882574 3.094029 -31.834818 -0.000002 -0.000000 -0.000002 0.304912 4.453521 -32.692970 1.292654 3.672096 -38.775452 0.300516 1.853958 -18.413078 -0.000001 0.000000 -0.000001 4.259750 11.364108 -28.960282 0.742150 2.855803 -29.129698 0.679997 2.741416 -27.856657 -0.000000 0.000000 -0.000000 8.128129 20.140134 -25.791363 0.268796 1.755842 -17.405887 0.241897 1.667668 -16.505521 0.000000 -0.000000 0.000001 2.155697 16.160400 10.328317 -28.631250 8.091172 39.670063 0.000011 143.915965 -0.000031 -72.570336 16.047236 15.306495 -54.346900 21.832486 -0.100284 13.340464 -50.293948 -11.002128 -45.990160 -83.657578 -64.364144 -0.000002 -0.000001 0.000002 1.365641 0.382841 56.312109 2.177792 -3.943562 57.805366 0.170820 -1.251070 15.550145 0.000001 -0.000001 -0.000000 -0.848132 -2.703765 37.621310 4.871950 -4.652228 92.646189 0.087954 -0.901807 11.141147 -0.000002 -0.000000 -0.000000 2.383361 -6.996932 35.980204 3.239469 -4.436611 72.258907 0.664105 -2.398746 30.946228 0.000002 -0.000001 0.000000 8.222201 -23.572456 24.816855 0.541063 -2.180618 27.867018 0.253079 -1.515807 18.955745 0.000000 0.000001 -0.000000 -10.588689 16.454440 19.255859 28.386124 -3.345306 2.342196 -3.652747 1.240715 -13.166971 -5.002691 0.000002 -0.000003 0.000000 0.000000 -0.000000 7.113458 -13.287383 -13.636545 37.572949 -5.853336 -1.003884 -15.090162 1.969253 12.276375 -21.124370 0.000012 -0.000000 -0.000000 0.000001 -0.000000 
1.268935 89.752480 22.362373 -18.572353 -21.267780 -7.593052 0.038068 5.120870 0.229149 -0.315903 2.104189 2.049759 -0.341145 2.104069 2.137020 4.248647 1.751907 2.254329 -9.610174 12.976887 -3.608041 0.000001 -0.000000 0.000000 1.803248 -14.950295 -8.940480 -34.740504 6.188685 -43.337134 -0.000004 -142.800992 -0.000027 -70.432378 -6.429205 -20.146063 -8.062882 -1.397045 4.829466 13.849505 8.880536 14.316723 -7.147441 39.422995 16.190325 0.000002 -0.000001 0.000003 1.386447 2.082538 -40.675477 0.267894 1.752967 -17.376525 0.883693 3.095830 -31.855620 0.000001 -0.000002 -0.000002 0.305561 4.455105 -32.707823 1.293845 3.673593 -38.794102 0.300518 1.853954 -18.413075 0.000002 0.000001 -0.000002 4.264312 11.370338 -28.967491 0.742516 2.856454 -29.136866 0.680411 2.742208 -27.865386 0.000002 -0.000000 -0.000001 8.134329 20.152965 -25.790917 0.268794 1.755839 -17.405885 0.241896 1.667668 -16.505523 0.000002 0.000001 -0.000001 2.030121 16.027845 10.878369 -28.359266 8.743862 37.770413 0.000008 144.143055 -0.000023 -72.397874 18.957851 14.014210 -55.577522 21.470254 -1.077552 13.415825 -50.333051 -10.923060 -45.739735 -83.520489 -64.092043 0.000000 -0.000001 0.000001 1.009042 0.436999 55.612852 2.167769 -3.937258 57.659412 0.170011 -1.248136 15.512826 -0.000003 -0.000001 0.000001 -0.838590 -2.653305 36.904943 4.868894 -4.652378 92.608568 0.086860 -0.896213 11.071063 -0.000002 0.000001 0.000000 2.327910 -6.971946 35.270062 3.254332 -4.441317 72.450993 0.656997 -2.386858 30.775719 -0.000005 -0.000000 0.000000 7.039106 -24.134496 23.982461 0.551409 -2.200053 28.137601 0.253142 -1.516027 18.958507 -0.000000 0.000001 -0.000001 -7.055915 17.732290 18.510060 26.737136 -4.614983 2.342828 -4.054992 1.193870 -12.469747 -5.002688 0.000000 0.000003 0.000000 0.000000 0.000000 9.120260 -14.632878 -14.040645 36.999097 -7.219487 -1.738150 -10.622029 0.241217 15.285279 -18.891374 -0.000001 -0.000003 -0.000000 0.000003 0.000000 
1.386274 89.814987 23.105373 -19.380223 -20.202106 -7.729886 -0.162412 5.294077 0.283195 -0.424455 2.117289 2.257663 -0.455083 2.104806 2.348318 3.664318 1.406729 2.178329 -8.780067 11.229592 -4.018978 -0.000001 0.000000 -0.000000 1.881491 -14.873546 -8.544141 -32.781684 5.888775 -44.497238 0.000029 -142.861302 0.000031 -69.662445 -7.503800 -21.281836 -8.069426 -1.400496 4.829083 13.850655 8.865328 14.315494 -7.144694 39.455278 16.201398 0.000005 -0.000001 -0.000001 1.388453 2.085209 -40.705793 0.267894 1.752972 -17.376527 0.884874 3.097729 -31.877456 -0.000003 -0.000002 0.000001 0.306249 4.456818 -32.723402 1.295098 3.675140 -38.813721 0.300519 1.853955 -18.413082 -0.000001 -0.000002 0.000000 4.269068 11.376868 -28.975069 0.742881 2.857116 -29.144383 0.680853 2.743033 -27.874543 0.000002 -0.000000 -0.000001 8.140809 20.166478 -25.790432 0.268794 1.755845 -17.405887 0.241895 1.667668 -16.505523 0.000001 -0.000002 0.000001 1.779638 15.953370 11.988293 -28.516684 9.041882 36.506480 -0.000018 144.282569 0.000017 -72.996349 19.820159 14.936560 -55.615481 21.444907 -2.096066 13.483547 -50.332040 -10.858677 -44.731035 -83.291275 -63.033275 -0.000000 0.000005 -0.000001 1.167149 0.273205 54.783076 2.159627 -3.932088 57.540949 0.169182 -1.245131 15.474360 -0.000001 0.000000 -0.000000 -0.606196 -2.900810 36.089541 4.857313 -4.652868 92.465769 0.086630 -0.895092 11.057090 -0.000000 -0.000000 -0.000001 2.484293 -7.257137 34.486732 3.255494 -4.441674 72.465862 0.652527 -2.379344 30.668328 -0.000002 -0.000000 -0.000000 6.544087 -24.476311 23.210765 0.555368 -2.207456 28.240862 0.253011 -1.515631 18.953406 -0.000001 -0.000000 0.000001 -6.182940 18.220482 18.221744 26.888645 -5.796667 2.299730 -4.515561 1.129158 -11.721124 -5.002691 -0.000001 -0.000002 -0.000000 -0.000000 -0.000000 9.127359 -15.624413 -14.582898 37.952240 -7.575324 -2.188293 -7.443381 -1.969842 17.243837 -18.538269 -0.000051 0.088690 -0.000000 0.000001 0.000000 
1.529778 89.021004 23.209391 -19.404463 -19.176151 -7.416605 -0.139870 5.218025 0.211542 -0.329540 2.036853 2.382560 -0.369684 2.011539 2.478844 2.859547 1.029982 2.365664 -8.893184 9.897268 -4.754737 0.000000 -0.000000 0.000000 2.010672 -14.850870 -7.880089 -31.523737 6.687291 -46.053899 -0.000001 -143.357010 0.000000 -68.475481 -7.467872 -21.636945 -8.069128 -1.400348 4.829100 13.850563 8.865958 14.315587 -7.145047 39.453772 16.201514 0.000001 -0.000005 -0.000000 1.388361 2.085176 -40.704529 0.267895 1.752971 -17.376527 0.884825 3.097666 -31.876530 0.000000 -0.000000 0.000001 0.306233 4.456756 -32.722757 1.295049 3.675087 -38.812891 0.300516 1.853957 -18.413082 -0.000003 -0.000001 -0.000004 4.268873 11.376596 -28.974772 0.742863 2.857097 -29.144072 0.680827 2.742992 -27.874173 -0.000000 0.000000 -0.000003 8.140532 20.165925 -25.790453 0.268792 1.755838 -17.405888 0.241897 1.667672 -16.505521 0.000001 0.000000 -0.000002 1.546400 15.983247 13.016823 -28.435382 9.055280 35.896093 -0.000016 144.206180 -0.000004 -73.487528 19.827534 15.514517 -55.242047 21.520551 -1.909367 13.538932 -50.378782 -10.796863 -44.987413 -83.245410 -63.282741 -0.000002 0.000001 -0.000001 1.345032 0.258040 54.885457 2.161418 -3.933224 57.566829 0.169180 -1.245115 15.474297 0.000006 0.000000 -0.000000 -0.577280 -2.948520 36.192848 4.856579 -4.652916 92.456787 0.086934 -0.896517 11.074976 -0.000000 0.000000 0.000000 2.518791 -7.297285 34.595431 3.251054 -4.440289 72.408529 0.653950 -2.381759 30.702773 -0.000003 0.000000 -0.000000 6.829069 -24.309378 23.373623 0.552643 -2.202362 28.169976 0.252953 -1.515477 18.951422 0.000003 -0.000001 -0.000000 -7.557538 18.088339 18.230840 28.887032 -6.967104 2.272845 -5.197718 1.142976 -10.964088 -5.002688 -0.000004 0.000002 -0.000001 -0.000000 -0.000000 7.767002 -15.443551 -16.383932 40.300701 -7.260541 -1.819146 -5.925585 -1.399737 18.696921 -19.472398 -0.008160 1.011656 -0.000000 -0.000000 -0.000000 
